<mxfile host="app.diagrams.net" modified="2024-01-30T10:12:36.791Z" agent="Mozilla/5.0 (Windows NT 10.0; Win64; x64) AppleWebKit/537.36 (KHTML, like Gecko) Chrome/120.0.0.0 Safari/537.36" etag="q5PT20vMLZzjHE1HJiZo" version="23.0.2" type="github">
  <diagram name="第 1 页" id="9Wy57vLdWNZvY6cCVtTI">
    <mxGraphModel dx="2207" dy="1169" grid="1" gridSize="10" guides="1" tooltips="1" connect="1" arrows="1" fold="1" page="1" pageScale="1" pageWidth="1169" pageHeight="827" math="0" shadow="0">
      <root>
        <mxCell id="0" />
        <mxCell id="1" parent="0" />
        <mxCell id="MBymmYlp3hh2KS27ztZ8-3" value="" style="edgeStyle=orthogonalEdgeStyle;rounded=0;orthogonalLoop=1;jettySize=auto;html=1;" parent="1" source="MBymmYlp3hh2KS27ztZ8-1" target="MBymmYlp3hh2KS27ztZ8-2" edge="1">
          <mxGeometry relative="1" as="geometry" />
        </mxCell>
        <mxCell id="Zfmy-shuOtCyCxK26fpC-5" style="edgeStyle=orthogonalEdgeStyle;rounded=0;orthogonalLoop=1;jettySize=auto;html=1;exitX=1;exitY=0.5;exitDx=0;exitDy=0;entryX=0;entryY=0.5;entryDx=0;entryDy=0;curved=1;" edge="1" parent="1" source="MBymmYlp3hh2KS27ztZ8-1" target="e2LnPuanKAm1eNY4E1Dq-3">
          <mxGeometry relative="1" as="geometry">
            <Array as="points">
              <mxPoint x="300" y="189" />
              <mxPoint x="300" y="340" />
            </Array>
          </mxGeometry>
        </mxCell>
        <mxCell id="MBymmYlp3hh2KS27ztZ8-1" value="1" style="rounded=1;whiteSpace=wrap;html=1;fontFamily=Times New Roman;fontSize=24;" parent="1" vertex="1">
          <mxGeometry x="200" y="169" width="80" height="40" as="geometry" />
        </mxCell>
        <mxCell id="MBymmYlp3hh2KS27ztZ8-5" value="" style="edgeStyle=orthogonalEdgeStyle;rounded=0;orthogonalLoop=1;jettySize=auto;html=1;" parent="1" source="MBymmYlp3hh2KS27ztZ8-2" target="MBymmYlp3hh2KS27ztZ8-4" edge="1">
          <mxGeometry relative="1" as="geometry" />
        </mxCell>
        <mxCell id="MBymmYlp3hh2KS27ztZ8-2" value="2" style="rounded=1;whiteSpace=wrap;html=1;fontFamily=Times New Roman;fontSize=24;labelBackgroundColor=none;fillColor=none;strokeColor=#36393d;" parent="1" vertex="1">
          <mxGeometry x="320" y="169" width="80" height="40" as="geometry" />
        </mxCell>
        <mxCell id="MBymmYlp3hh2KS27ztZ8-7" value="" style="edgeStyle=orthogonalEdgeStyle;rounded=0;orthogonalLoop=1;jettySize=auto;html=1;" parent="1" source="MBymmYlp3hh2KS27ztZ8-4" target="MBymmYlp3hh2KS27ztZ8-6" edge="1">
          <mxGeometry relative="1" as="geometry" />
        </mxCell>
        <mxCell id="e2LnPuanKAm1eNY4E1Dq-8" style="edgeStyle=orthogonalEdgeStyle;rounded=0;orthogonalLoop=1;jettySize=auto;html=1;exitX=1;exitY=0.5;exitDx=0;exitDy=0;entryX=0;entryY=0.5;entryDx=0;entryDy=0;curved=1;" parent="1" source="MBymmYlp3hh2KS27ztZ8-4" target="MBymmYlp3hh2KS27ztZ8-9" edge="1">
          <mxGeometry relative="1" as="geometry" />
        </mxCell>
        <mxCell id="MBymmYlp3hh2KS27ztZ8-4" value="3" style="rounded=1;whiteSpace=wrap;html=1;fontFamily=Times New Roman;fontSize=24;fillColor=none;strokeColor=#36393d;" parent="1" vertex="1">
          <mxGeometry x="440" y="169" width="80" height="40" as="geometry" />
        </mxCell>
        <mxCell id="e2LnPuanKAm1eNY4E1Dq-11" value="" style="edgeStyle=orthogonalEdgeStyle;rounded=0;orthogonalLoop=1;jettySize=auto;html=1;" parent="1" source="MBymmYlp3hh2KS27ztZ8-6" target="e2LnPuanKAm1eNY4E1Dq-7" edge="1">
          <mxGeometry relative="1" as="geometry" />
        </mxCell>
        <mxCell id="MBymmYlp3hh2KS27ztZ8-6" value="6" style="rounded=1;whiteSpace=wrap;html=1;fontFamily=Times New Roman;fontSize=24;" parent="1" vertex="1">
          <mxGeometry x="680" y="169" width="80" height="40" as="geometry" />
        </mxCell>
        <mxCell id="MBymmYlp3hh2KS27ztZ8-10" value="" style="edgeStyle=orthogonalEdgeStyle;rounded=0;orthogonalLoop=1;jettySize=auto;html=1;" parent="1" source="MBymmYlp3hh2KS27ztZ8-8" target="MBymmYlp3hh2KS27ztZ8-9" edge="1">
          <mxGeometry relative="1" as="geometry" />
        </mxCell>
        <mxCell id="MBymmYlp3hh2KS27ztZ8-8" value="4" style="rounded=1;whiteSpace=wrap;html=1;fontFamily=Times New Roman;fontSize=24;fillColor=none;strokeColor=#36393d;" parent="1" vertex="1">
          <mxGeometry x="440" y="250" width="80" height="40" as="geometry" />
        </mxCell>
        <mxCell id="MBymmYlp3hh2KS27ztZ8-13" style="edgeStyle=orthogonalEdgeStyle;rounded=0;orthogonalLoop=1;jettySize=auto;html=1;entryX=0;entryY=0.5;entryDx=0;entryDy=0;curved=1;" parent="1" source="MBymmYlp3hh2KS27ztZ8-9" target="MBymmYlp3hh2KS27ztZ8-6" edge="1">
          <mxGeometry relative="1" as="geometry" />
        </mxCell>
        <mxCell id="e2LnPuanKAm1eNY4E1Dq-12" value="" style="edgeStyle=orthogonalEdgeStyle;rounded=0;orthogonalLoop=1;jettySize=auto;html=1;" parent="1" source="MBymmYlp3hh2KS27ztZ8-9" target="e2LnPuanKAm1eNY4E1Dq-10" edge="1">
          <mxGeometry relative="1" as="geometry" />
        </mxCell>
        <mxCell id="MBymmYlp3hh2KS27ztZ8-9" value="5" style="rounded=1;whiteSpace=wrap;html=1;fontFamily=Times New Roman;fontSize=24;fillColor=none;strokeColor=#36393d;" parent="1" vertex="1">
          <mxGeometry x="560" y="250" width="80" height="40" as="geometry" />
        </mxCell>
        <mxCell id="MBymmYlp3hh2KS27ztZ8-15" value="" style="endArrow=none;dashed=1;html=1;rounded=0;" parent="1" edge="1">
          <mxGeometry width="50" height="50" relative="1" as="geometry">
            <mxPoint x="120" y="220" as="sourcePoint" />
            <mxPoint x="880" y="220" as="targetPoint" />
          </mxGeometry>
        </mxCell>
        <mxCell id="MBymmYlp3hh2KS27ztZ8-16" value="Graphics" style="text;html=1;strokeColor=none;fillColor=none;align=center;verticalAlign=middle;whiteSpace=wrap;rounded=0;fontFamily=Times New Roman;fontSize=16;" parent="1" vertex="1">
          <mxGeometry x="120" y="165" width="60" height="30" as="geometry" />
        </mxCell>
        <mxCell id="MBymmYlp3hh2KS27ztZ8-17" value="Compute" style="text;html=1;strokeColor=none;fillColor=none;align=center;verticalAlign=middle;whiteSpace=wrap;rounded=0;fontFamily=Times New Roman;fontSize=16;" parent="1" vertex="1">
          <mxGeometry x="120" y="240" width="60" height="30" as="geometry" />
        </mxCell>
        <mxCell id="Zfmy-shuOtCyCxK26fpC-4" style="edgeStyle=orthogonalEdgeStyle;rounded=0;orthogonalLoop=1;jettySize=auto;html=1;exitX=1;exitY=0.5;exitDx=0;exitDy=0;entryX=0;entryY=0.5;entryDx=0;entryDy=0;curved=1;" edge="1" parent="1" source="e2LnPuanKAm1eNY4E1Dq-3" target="e2LnPuanKAm1eNY4E1Dq-10">
          <mxGeometry relative="1" as="geometry">
            <Array as="points">
              <mxPoint x="660" y="340" />
              <mxPoint x="660" y="270" />
            </Array>
          </mxGeometry>
        </mxCell>
        <mxCell id="e2LnPuanKAm1eNY4E1Dq-3" value="7" style="rounded=1;whiteSpace=wrap;html=1;fontFamily=Times New Roman;fontSize=24;fillColor=none;strokeColor=#36393d;" parent="1" vertex="1">
          <mxGeometry x="440" y="320" width="80" height="40" as="geometry" />
        </mxCell>
        <mxCell id="e2LnPuanKAm1eNY4E1Dq-4" value="" style="endArrow=none;dashed=1;html=1;rounded=0;" parent="1" edge="1">
          <mxGeometry width="50" height="50" relative="1" as="geometry">
            <mxPoint x="120" y="300" as="sourcePoint" />
            <mxPoint x="880" y="300" as="targetPoint" />
          </mxGeometry>
        </mxCell>
        <mxCell id="e2LnPuanKAm1eNY4E1Dq-5" value="Copy" style="text;html=1;strokeColor=none;fillColor=none;align=left;verticalAlign=middle;whiteSpace=wrap;rounded=0;fontFamily=Times New Roman;fontSize=16;" parent="1" vertex="1">
          <mxGeometry x="120" y="320" width="60" height="30" as="geometry" />
        </mxCell>
        <mxCell id="e2LnPuanKAm1eNY4E1Dq-7" value="9" style="rounded=1;whiteSpace=wrap;html=1;fontFamily=Times New Roman;fontSize=24;" parent="1" vertex="1">
          <mxGeometry x="800" y="169" width="80" height="40" as="geometry" />
        </mxCell>
        <mxCell id="e2LnPuanKAm1eNY4E1Dq-13" style="edgeStyle=orthogonalEdgeStyle;rounded=0;orthogonalLoop=1;jettySize=auto;html=1;entryX=0;entryY=0.5;entryDx=0;entryDy=0;curved=1;" parent="1" source="e2LnPuanKAm1eNY4E1Dq-10" target="e2LnPuanKAm1eNY4E1Dq-7" edge="1">
          <mxGeometry relative="1" as="geometry" />
        </mxCell>
        <mxCell id="e2LnPuanKAm1eNY4E1Dq-10" value="8" style="rounded=1;whiteSpace=wrap;html=1;fontFamily=Times New Roman;fontSize=24;fillColor=none;strokeColor=#36393d;" parent="1" vertex="1">
          <mxGeometry x="680" y="250" width="80" height="40" as="geometry" />
        </mxCell>
        <mxCell id="Zfmy-shuOtCyCxK26fpC-10" value="" style="endArrow=none;html=1;rounded=1;exitX=0;exitY=0;exitDx=0;exitDy=0;entryX=1;entryY=0;entryDx=0;entryDy=0;curved=0;endFill=0;dashed=1;dashPattern=1 2;" edge="1" parent="1" source="MBymmYlp3hh2KS27ztZ8-2" target="MBymmYlp3hh2KS27ztZ8-4">
          <mxGeometry relative="1" as="geometry">
            <mxPoint x="340" y="159" as="sourcePoint" />
            <mxPoint x="500" y="159" as="targetPoint" />
            <Array as="points">
              <mxPoint x="320" y="160" />
              <mxPoint x="520" y="160" />
            </Array>
          </mxGeometry>
        </mxCell>
        <mxCell id="Zfmy-shuOtCyCxK26fpC-11" value="ResA" style="edgeLabel;resizable=0;html=1;align=center;verticalAlign=middle;fontStyle=2;fontSize=14;" connectable="0" vertex="1" parent="Zfmy-shuOtCyCxK26fpC-10">
          <mxGeometry relative="1" as="geometry">
            <mxPoint x="-3" as="offset" />
          </mxGeometry>
        </mxCell>
        <mxCell id="Zfmy-shuOtCyCxK26fpC-15" value="" style="endArrow=none;html=1;rounded=1;exitX=0;exitY=0;exitDx=0;exitDy=0;entryX=1;entryY=0;entryDx=0;entryDy=0;curved=0;endFill=0;dashed=1;dashPattern=1 2;" edge="1" parent="1" source="MBymmYlp3hh2KS27ztZ8-8" target="MBymmYlp3hh2KS27ztZ8-8">
          <mxGeometry relative="1" as="geometry">
            <mxPoint x="450" y="250" as="sourcePoint" />
            <mxPoint x="610" y="250" as="targetPoint" />
            <Array as="points">
              <mxPoint x="440" y="240" />
              <mxPoint x="520" y="240" />
            </Array>
          </mxGeometry>
        </mxCell>
        <mxCell id="Zfmy-shuOtCyCxK26fpC-16" value="ResB" style="edgeLabel;resizable=0;html=1;align=center;verticalAlign=middle;fontStyle=2;fontSize=14;" connectable="0" vertex="1" parent="Zfmy-shuOtCyCxK26fpC-15">
          <mxGeometry relative="1" as="geometry">
            <mxPoint x="-3" as="offset" />
          </mxGeometry>
        </mxCell>
        <mxCell id="Zfmy-shuOtCyCxK26fpC-18" value="" style="endArrow=none;html=1;rounded=1;exitX=0;exitY=0;exitDx=0;exitDy=0;entryX=1;entryY=0;entryDx=0;entryDy=0;curved=0;endFill=0;dashed=1;dashPattern=1 2;" edge="1" parent="1">
          <mxGeometry relative="1" as="geometry">
            <mxPoint x="560" y="250" as="sourcePoint" />
            <mxPoint x="640" y="250" as="targetPoint" />
            <Array as="points">
              <mxPoint x="560" y="240" />
              <mxPoint x="640" y="240" />
            </Array>
          </mxGeometry>
        </mxCell>
        <mxCell id="Zfmy-shuOtCyCxK26fpC-19" value="ResC" style="edgeLabel;resizable=0;html=1;align=center;verticalAlign=middle;fontStyle=2;fontSize=14;" connectable="0" vertex="1" parent="Zfmy-shuOtCyCxK26fpC-18">
          <mxGeometry relative="1" as="geometry">
            <mxPoint x="-3" as="offset" />
          </mxGeometry>
        </mxCell>
      </root>
    </mxGraphModel>
  </diagram>
</mxfile>
